<svg width="380" height="318" viewBox="0 0 380 318" xmlns="http://www.w3.org/2000/svg" font-family="-apple-system, BlinkMacSystemFont, 'Segoe UI', Helvetica, Arial, sans-serif">
  <title>AI Usage Widget — illustrative sample data</title>

  <!-- card -->
  <rect x="0.5" y="0.5" width="379" height="317" rx="18" fill="#faf9f7" stroke="#eeece8"/>

  <!-- quit control -->
  <text x="356" y="26" font-size="16" fill="#8a8f98" opacity="0.5" text-anchor="end">&#215;</text>

  <!-- Claude Code -->
  <text x="24" y="45" font-size="14" font-weight="600" fill="#1f2328">Claude Code</text>
  <text x="356" y="45" font-size="11.5" fill="#8a8f98" text-anchor="end">38% &#183; 4:12pm  /  71% &#183; Mon</text>
  <rect x="24" y="59" width="163" height="8" rx="4" fill="#e7e5e1"/>
  <rect x="24" y="59" width="62" height="8" rx="4" fill="#3b82f6"/>
  <rect x="193" y="59" width="163" height="8" rx="4" fill="#e7e5e1"/>
  <rect x="193" y="59" width="116" height="8" rx="4" fill="#f59e0b"/>

  <!-- Codex -->
  <text x="24" y="114" font-size="14" font-weight="600" fill="#1f2328">Codex</text>
  <text x="356" y="114" font-size="11.5" fill="#8a8f98" text-anchor="end">15% &#183; 6:40pm  /  24% &#183; Sun</text>
  <rect x="24" y="128" width="163" height="8" rx="4" fill="#e7e5e1"/>
  <rect x="24" y="128" width="24" height="8" rx="4" fill="#3b82f6"/>
  <rect x="193" y="128" width="163" height="8" rx="4" fill="#e7e5e1"/>
  <rect x="193" y="128" width="39" height="8" rx="4" fill="#f59e0b"/>

  <!-- Cursor -->
  <text x="24" y="183" font-size="14" font-weight="600" fill="#1f2328">Cursor</text>
  <text x="356" y="183" font-size="11.5" fill="#8a8f98" text-anchor="end">52% &#183; resets Aug 18</text>
  <rect x="24" y="197" width="332" height="8" rx="4" fill="#e7e5e1"/>
  <rect x="24" y="197" width="173" height="8" rx="4" fill="#65a30d"/>

  <!-- legend -->
  <rect x="24" y="243" width="9" height="9" rx="2" fill="#3b82f6"/>
  <text x="39" y="251" font-size="11" fill="#8a8f98">5h window</text>
  <rect x="126" y="243" width="9" height="9" rx="2" fill="#f59e0b"/>
  <text x="141" y="251" font-size="11" fill="#8a8f98">weekly</text>
  <rect x="197" y="243" width="9" height="9" rx="2" fill="#65a30d"/>
  <text x="212" y="251" font-size="11" fill="#8a8f98">monthly</text>

  <!-- updated at -->
  <text x="24" y="284" font-size="10" fill="#8a8f98" opacity="0.7">Updated just now</text>
</svg>
